<?xml version="1.0" encoding="utf-8"?>
<!-- Generator: Adobe Illustrator 27.0.0, SVG Export Plug-In . SVG Version: 6.00 Build 0)  -->
<svg version="1.1" id="Layer_1" xmlns="http://www.w3.org/2000/svg" xmlns:xlink="http://www.w3.org/1999/xlink" x="0px" y="0px"
	 viewBox="0 0 1770.5 522.8" style="enable-background:new 0 0 1770.5 522.8;" xml:space="preserve">
<style type="text/css">
	.st0{fill:#E5E5E5;}
	.st1{fill:#494949;}
	.st2{fill:url(#SVGID_1_);}
	.st3{fill:url(#SVGID_00000074434442404493825970000005543760755305621409_);}
	.st4{fill:url(#SVGID_00000137095793879245931760000016271076915316235941_);}
	.st5{fill:url(#SVGID_00000087382029953074464900000002142334964160420265_);}
	.st6{fill:url(#SVGID_00000070826634513162812110000016118417347374009012_);}
	.st7{fill:url(#SVGID_00000092434416067705122960000008979710207870837394_);}
	.st8{fill:url(#SVGID_00000018216408512581339890000001062907254502291331_);}
	.st9{fill:url(#SVGID_00000100350118290268402840000004186739450681505169_);}
</style>
<path class="st0" d="M1693.2,522.8H77.2C34.6,522.8,0,488.2,0,445.5V77.2C0,34.6,34.6,0,77.2,0h1616c42.7,0,77.2,34.6,77.2,77.2
	v368.3C1770.5,488.2,1735.9,522.8,1693.2,522.8z"/>
<g>
	<path class="st1" d="M1012.1,217.5c-39.4,0-77.1,26.2-76.8,73.6c0.3,45.8,35.1,68.3,74.8,68.3c41,0,76.8-22.9,76.8-71.3
		C1086.9,241.4,1051.5,217.5,1012.1,217.5z M1013.8,344.2c-19.4,0-30.4-25.5-30.4-60.4c0-36.1,12-51,26.7-51c19,0,28.4,27.9,28.7,60
		C1039.1,322.6,1032.8,344.2,1013.8,344.2z"/>
	<path class="st1" d="M1193.5,220.6c-14,0-23.7,10.9-32.7,16.6c-2.7-0.7-3.3-1.7-3.3-4c0-3,0.7-7.6,1.3-14.3c-0.7-1-1.6-1.8-2.6-2.3
		c-1.1-0.5-2.2-0.8-3.4-0.7c-10.3,6.6-33.4,15.6-48.7,19.9c-2.3,2-2.3,8,0,10l4.7,3c6.3,4,6.3,8,6.3,21.2l0.1,50
		c0,23.2-1.3,26.2-12.4,27.2l-6.3,0.7c-2.7,2-2.7,9.6,0.3,11.6c11-0.7,25.7-1,39.4-1c15.7,0,29,0.3,45,1c3-2,3-9.6,0.3-11.6l-10.7-1
		c-11-1-12.4-3.7-12.4-26.9v-51c0-12.6,1.7-19.9,6.3-19.9c2,0,5,0.3,12.7,6.6c4.3,4,8.3,6,13,6c10.7,0,21.4-6.3,21.4-21.6
		C1211.9,227.5,1202.6,220.6,1193.5,220.6z"/>
	<path class="st1" d="M1320.1,331.6c-4,2.7-9.3,5-14,5c-23.4,0-23.4-20.6-23.4-39.2v-49.8c0-7.3,0.3-7.6,4.7-7.6h30.1
		c3.3-2,4.3-8,4.3-11.6c0-3-1-5-2.7-6.3h-29.7c-6,0-6.3-0.3-6.3-6.6v-24.9c-1.7-2.6-7.7-3-10-1.6c-10.4,14.6-18.7,21.6-24.7,25.9
		c-8,5.3-17.4,11.3-27.7,14.9c-2.7,2.3-1.7,8.9,2,10.3h10.4c6,0,6.3,0.7,6.3,7.6v74c0,21.9,9.7,37.8,37.4,37.8
		c20.7,0,38.7-9.3,48-19.2C1325.4,336.3,1323.4,332.6,1320.1,331.6z"/>
	<path class="st1" d="M1459.4,318.5c-0.4-1-1.1-1.9-1.9-2.6c-0.8-0.7-1.8-1.3-2.9-1.6c-1.1-0.3-2.2-0.4-3.3-0.2
		c-9,15.3-21.7,17.2-31,17.2c-31,0-47-24.2-47-49.1c0-5.3,0.7-6,8.3-6l64.1,0c10.3,0,12-4.6,12-10.9c0-25.5-18.7-47.8-53.4-47.8
		c-41.7,0-72.1,32.5-72.1,74.3c0,36.2,24.4,67.7,69.4,67.7c20,0,44.7-9.6,58.4-37.8C1460.1,320.6,1459.9,319.5,1459.4,318.5z
		 M1402,232.7c11.3,0,17.7,7.3,17.7,18.2c0,3.3-0.7,6.6-2.3,7.6c-3.7,2.3-9,3-13.7,3l-12.3,0c-10.7,0-15.3-0.3-15.3-5
		C1375.9,246,1387.9,232.7,1402,232.7z"/>
	<path class="st1" d="M1617.9,347.9l-3.7-0.3c-11.4-1-18-4.3-29.7-21.6l-22.7-33.5c-3-4.3-7-11-7-12.9c0-1.7,2.3-4.6,6.3-10
		c7.7-9.6,20.4-23.5,25-26.5c5.4-3.3,10.4-4.6,20-6l4.8-0.7c3-2,2.7-10.6-0.7-11.6c-8.3,0.7-17,1-25.4,1c-12,0-20.7-0.3-30.4-1
		c-3.3,1.3-4,9.6-1,11.6l3.7,1c3.3,1,5.3,1.7,5.3,3c0,1.7-0.3,3-2.3,6c-5.3,8-11,15.9-14.4,20.6c-4.7-6.6-9.3-12.9-13.7-20.2
		c-2.3-4-3-5.6-3-7c0-1,2.3-2,5-2.3l4-1c3.7-2,3.3-10.3-0.7-11.6c-12,0.7-23.7,1-35.7,1c-18.4,0-27.4-0.3-40.4-1
		c-3.3,1-3.3,10-1,11.6l7,1.7c7.4,1.7,13.7,4.3,20.4,14.6l18,27.5c7.7,12,10.7,16.3,10.7,17.6c0,1.6-1,4-3,7.3
		c-4.7,7-22.4,29.9-27.4,34.8c-3,3.3-10,5.6-15.7,6.6l-8.3,1.3c-3.3,2.7-2.3,10,0.7,11.6c10.3-0.7,18.3-1,26-1c10.3,0,20.4,0.3,30,1
		c2.7-1.3,3.3-9.6,0.7-11.6l-5.3-1c-4.7-1-6-1.7-6-3.3c0-2,1.3-5,4-9.6c4.3-7.3,9-14.9,13.7-21.9c5.3,7.6,9.7,14.6,14.4,21.9
		c2.7,4.3,4,7.6,4,9c0,1.4-1,2.7-5.7,3.7l-7.3,1.3c-2.7,2.3-2,10.3,1,11.6c15.4-0.7,31-1,44.4-1c12.7,0,25.7,0.3,40.4,1
		C1620.6,358.2,1620.6,350.2,1617.9,347.9z"/>
	<path class="st1" d="M900.3,322.2c-2.2,3.3-4.8,6.3-7.7,9c-10.8,10.1-24.7,15.2-41.7,15.2c-19.2,0-34.3-7.2-45.3-21.7
		c-13.1-17.1-19.7-38.3-19.7-63.5c0-25.5,6.1-46,18.3-61.5c12.2-15.5,28.3-23.3,48.2-23.3c16.4,0,29.6,5,39.6,14.9
		c2.4,2.3,4.5,4.8,6.3,7.6c2.1,3.6,4,7.4,5.5,11.2l12-1.8c-3.3-11.2-5.1-17.4-5.5-18.6c-0.3-1.2-1.6-6.6-3.7-16.2
		c-14.3-4.2-25.2-6.9-32.6-8.1c-9.1-1.3-18.2-2-27.4-1.8c-14,0-26.3,1.7-36.9,5c-10.7,3.4-20.7,8.6-29.5,15.4
		c-10.4,8-19,17.9-25.4,29.3c-9.4,17.1-14.1,34.7-14.1,52.9c-0.2,14.5,2.9,28.9,8.9,42.1c5.7,12.4,14.3,23.3,25.2,31.7
		c17.3,13.1,40.4,19.6,69.5,19.6c8.8,0,17.5-0.4,26.2-1.3c9.9-1.1,19.8-2.6,29.6-4.7l8.1-1.6c1.4-7.2,2.9-13.9,4.6-20.1
		c1.7-6.3,3.6-12.9,5.9-19.9l-11.8-2.4C905,313.9,902.8,318.1,900.3,322.2z"/>
	<path class="st1" d="M722.8,163.5c-5.3,0.1-16,0.5-32,1.3c-3.6,0.2-8.3,0.3-14.1,0.3c-8.8-0.4-16.5-0.7-23-1.1
		c-6.1-0.3-13.7-0.5-22.9-0.5c-1.1,0-2,0.9-2,2v7.1c0,1.1,0.9,2,2,2h5.3c12.3,0,18.4,4.6,18.4,13.9v146.2c0,9.1-6,13.6-18.1,13.6
		h-5.5c-1.1,0-2,0.9-2,2v7.2c0,1.1,0.9,2,2,2c5.3-0.1,16-0.6,31.9-1.4c3.6-0.2,8.4-0.3,14.1-0.3c2.5,0,9.1,0.3,19.8,0.8
		c9.8,0.5,18.5,0.8,26,0.8c1.1,0,2-0.9,2-2v-7.2c0-1.1-0.9-2-2-2h-5.4c-6.4,0-11-1.1-13.8-3.1c-2.8-2-4.2-5.5-4.2-10.4V188.5
		c0-4.9,1.4-8.4,4.3-10.6c2.9-2.2,7.5-3.3,13.8-3.3h5.3c1.1,0,2-0.9,2-2v-7.1C724.8,164.4,723.9,163.5,722.8,163.5z"/>
</g>
<g>
	<linearGradient id="SVGID_1_" gradientUnits="userSpaceOnUse" x1="90.9962" y1="189.0158" x2="461.021" y2="482.0455">
		<stop  offset="0" style="stop-color:#FF805F"/>
		<stop  offset="0.5" style="stop-color:#B74BDD"/>
		<stop  offset="1" style="stop-color:#0379FF"/>
	</linearGradient>
	<polygon class="st2" points="163.8,126.5 214.3,126.5 214.3,113.5 150.8,113.5 150.8,409.5 214.3,409.5 214.3,396.5 163.8,396.5 	
		"/>
	
		<linearGradient id="SVGID_00000072981325018150466090000000715433052854672547_" gradientUnits="userSpaceOnUse" x1="211.1686" y1="37.4998" x2="581.1934" y2="330.5295">
		<stop  offset="0" style="stop-color:#FF805F"/>
		<stop  offset="0.5" style="stop-color:#B74BDD"/>
		<stop  offset="1" style="stop-color:#0379FF"/>
	</linearGradient>
	<polygon style="fill:url(#SVGID_00000072981325018150466090000000715433052854672547_);" points="462.3,113.5 462.3,126.5 
		512.8,126.5 512.8,396.5 462.3,396.5 462.3,409.5 525.8,409.5 525.8,113.5 	"/>
	
		<linearGradient id="SVGID_00000025442870742990955930000014199912257359529910_" gradientUnits="userSpaceOnUse" x1="166.8073" y1="93.5173" x2="536.8321" y2="386.547">
		<stop  offset="0" style="stop-color:#FF805F"/>
		<stop  offset="0.5" style="stop-color:#B74BDD"/>
		<stop  offset="1" style="stop-color:#0379FF"/>
	</linearGradient>
	<path style="fill:url(#SVGID_00000025442870742990955930000014199912257359529910_);" d="M481.3,261.5c0-18.8-13.6-34.2-30.8-35.7
		c3.4-5.8,5.2-12.4,5.2-19.1c0-19.8-15-35.8-33.6-35.8c-3.4,0-6.8,0.6-10,1.7c-0.1-19.6-15.1-35.5-33.6-35.5
		c-18.5,0-33.6,16-33.6,35.8v39.9l0,0l26.6,25.4v46.8l0,0l0,0v0l-26.6,25.4v0v39.9c0,19.8,15,35.8,33.6,35.8
		c18.4,0,33.4-15.8,33.6-35.4c3.2,1.1,6.6,1.6,10,1.6c18.5,0,33.6-16,33.6-35.8c0-6.7-1.8-13.4-5.2-19.2
		C467.7,295.7,481.3,280.3,481.3,261.5z M407.9,191.2L407.9,191.2c-0.4,0.4-0.7,0.8-1.1,1.2L407.9,191.2z M358.2,172.8
		c0-12,9.1-21.7,20.4-21.7c11.2,0,20.4,9.7,20.4,21.7l0,0c0,4-1,7.9-3,11.4l-5.8,6.5l-7,7.9h-24.8V172.8z M364.8,212.7h23.9l0.3-0.3
		l0.1-0.1l9.8-11l7.5-8.4l0.5-0.6c0.3-0.4,0.7-0.8,1.1-1.2c1.8-1.9,4-3.5,6.5-4.6c2.4-1.1,5.1-1.6,7.7-1.6
		c11.2,0,20.4,9.7,20.4,21.7c0,8.2-4.2,15.3-10.5,19h-53.6L364.8,212.7z M378.5,371.9c-11.2,0-20.4-9.7-20.4-21.7v-25.8H383l7.1,7.9
		l5.8,6.5c2,3.5,3,7.4,3,11.4C398.9,362.2,389.8,371.9,378.5,371.9z M422.1,338.1c-5.1,0-10-2-13.6-5.6c-0.8-0.7-1.5-1.5-2.1-2.4
		l0,0l0,0l0-0.1c0,0,0,0,0,0l-7.5-8.4l-9.8-11l-0.1-0.1l-0.3-0.3h-24l13.6-13h53.6c6.3,3.7,10.6,10.8,10.6,19
		C442.5,328.4,433.3,338.1,422.1,338.1z M384.8,283.2v-43.4h63c11.2,0,20.4,9.7,20.4,21.7c0,12-9.1,21.7-20.4,21.7H384.8z"/>
	
		<linearGradient id="SVGID_00000099640528345371596850000016005441224001333935_" gradientUnits="userSpaceOnUse" x1="158.471" y1="104.0439" x2="528.4958" y2="397.0736">
		<stop  offset="0" style="stop-color:#FF805F"/>
		<stop  offset="0.5" style="stop-color:#B74BDD"/>
		<stop  offset="1" style="stop-color:#0379FF"/>
	</linearGradient>
	<path style="fill:url(#SVGID_00000099640528345371596850000016005441224001333935_);" d="M269.8,192.4L269.8,192.4l-1.1-1.2
		C269.1,191.6,269.4,192,269.8,192.4z"/>
	
		<linearGradient id="SVGID_00000046307461656373569790000006022086790962976151_" gradientUnits="userSpaceOnUse" x1="143.9933" y1="122.3258" x2="514.0181" y2="415.3555">
		<stop  offset="0" style="stop-color:#FF805F"/>
		<stop  offset="0.5" style="stop-color:#B74BDD"/>
		<stop  offset="1" style="stop-color:#0379FF"/>
	</linearGradient>
	<path style="fill:url(#SVGID_00000046307461656373569790000006022086790962976151_);" d="M406.3,330L406.3,330L406.3,330L406.3,330
		C406.2,330,406.3,330,406.3,330z"/>
	
		<linearGradient id="SVGID_00000118369947611586567810000014621418709859853490_" gradientUnits="userSpaceOnUse" x1="135.4626" y1="133.0979" x2="505.4874" y2="426.1277">
		<stop  offset="0" style="stop-color:#FF805F"/>
		<stop  offset="0.5" style="stop-color:#B74BDD"/>
		<stop  offset="1" style="stop-color:#0379FF"/>
	</linearGradient>
	<path style="fill:url(#SVGID_00000118369947611586567810000014621418709859853490_);" d="M298.1,137c-18.4,0-33.4,15.9-33.6,35.5
		c-3.2-1.1-6.6-1.6-10-1.6c-18.5,0-33.6,16-33.6,35.8c0,6.7,1.8,13.3,5.2,19.1c-17.2,1.5-30.8,16.9-30.8,35.7
		c0,18.8,13.6,34.2,30.8,35.7c-3.4,5.8-5.2,12.4-5.2,19.2c0,19.8,15,35.8,33.6,35.8c3.4,0,6.8-0.5,10-1.6
		c0.2,19.6,15.1,35.5,33.6,35.5c18.5,0,33.6-16,33.6-35.8v-39.9v0L305,284.9v-46.8v0l26.6-25.4l0,0v-39.9
		C331.6,153,316.6,137,298.1,137z M228.9,283.2c-11.2,0-20.4-9.7-20.4-21.7c0-12,9.1-21.7,20.4-21.7h63v43.4H228.9z M270.3,330
		L270.3,330L270.3,330C270.3,330,270.3,330,270.3,330z M318.4,350.2c0,12-9.1,21.7-20.4,21.7c-11.2,0-20.4-9.7-20.4-21.7
		c0-4,1-7.9,3-11.4l5.8-6.5l7.1-7.9h24.8V350.2z M311.9,310.3h-24l-0.3,0.3l0,0.1l-9.8,11l-7.5,8.4l0,0.1c0,0-0.1,0.1-0.1,0.1
		l0.1-0.1c-0.6,0.9-1.4,1.7-2.1,2.4l0.1-0.1c0,0-0.1,0.1-0.1,0.1c-3.6,3.6-8.5,5.6-13.6,5.6c-11.2,0-20.4-9.7-20.4-21.7
		c0-8.2,4.3-15.4,10.6-19h53.6L311.9,310.3z M298.2,225.7h-53.6c-6.2-3.7-10.5-10.8-10.5-19c0-12,9.1-21.7,20.4-21.7
		c2.7,0,5.3,0.6,7.7,1.6c2.4,1.1,4.6,2.6,6.5,4.6c0.4,0.4,0.7,0.8,1.1,1.2l0.5,0.6l7.5,8.4l9.8,11l0.1,0.1l0.3,0.3h23.9L298.2,225.7
		z M318.4,198.6h-24.8l-7-7.9l-5.8-6.5c-2-3.5-3-7.4-3-11.4c0-12,9.1-21.7,20.4-21.7l0,0c11.2,0,20.4,9.7,20.4,21.7V198.6z"/>
	
		<linearGradient id="SVGID_00000093167127657819603310000004818735430674231990_" gradientUnits="userSpaceOnUse" x1="143.8155" y1="122.5503" x2="513.8403" y2="415.58">
		<stop  offset="0" style="stop-color:#FF805F"/>
		<stop  offset="0.5" style="stop-color:#B74BDD"/>
		<stop  offset="1" style="stop-color:#0379FF"/>
	</linearGradient>
	<path style="fill:url(#SVGID_00000093167127657819603310000004818735430674231990_);" d="M408.5,332.5l-2.1-2.4
		C407,330.9,407.7,331.7,408.5,332.5z"/>
	
		<linearGradient id="SVGID_00000029734750691285410590000011214744313777002923_" gradientUnits="userSpaceOnUse" x1="90.5494" y1="189.8123" x2="460.5742" y2="482.8421">
		<stop  offset="0" style="stop-color:#FF805F"/>
		<stop  offset="0.5" style="stop-color:#B74BDD"/>
		<stop  offset="1" style="stop-color:#0379FF"/>
	</linearGradient>
	<path style="fill:url(#SVGID_00000029734750691285410590000011214744313777002923_);" d="M270.1,330.2l-1.9,2.1
		C268.9,331.7,269.6,331,270.1,330.2z"/>
</g>
</svg>
