<?xml version="1.0" encoding="utf-8"?>
<!-- Generator: Adobe Illustrator 27.0.0, SVG Export Plug-In . SVG Version: 6.00 Build 0)  -->
<svg version="1.1" id="Layer_1" xmlns="http://www.w3.org/2000/svg" xmlns:xlink="http://www.w3.org/1999/xlink" x="0px" y="0px"
	 viewBox="0 0 1004.6 793.8" style="enable-background:new 0 0 1004.6 793.8;" xml:space="preserve">
<style type="text/css">
	.st0{fill:#494949;}
	.st1{fill:url(#SVGID_1_);}
	.st2{fill:url(#SVGID_00000183929185071155075220000008520703210509169324_);}
	.st3{fill:url(#SVGID_00000116207683370740505160000014346878053831614339_);}
	.st4{fill:url(#SVGID_00000027565174884160338310000006444117202645186740_);}
	.st5{fill:url(#SVGID_00000122699407761500813830000018128540765669672379_);}
	.st6{fill:url(#SVGID_00000080189704747002263460000011653899697042396562_);}
	.st7{fill:url(#SVGID_00000090285758977421839870000009389661356856801182_);}
	.st8{fill:url(#SVGID_00000137110948346077283870000010408398811260628654_);}
</style>
<g>
	<path class="st0" d="M433.7,549.1c-24.2,0-47.3,16.1-47.1,45.2c0.2,28.1,21.5,41.9,45.9,41.9c25.2,0,47.1-14.1,47.1-43.8
		C479.6,563.7,457.9,549.1,433.7,549.1z M434.7,626.8c-11.9,0-18.7-15.7-18.7-37.1c0-22.2,7.4-31.3,16.4-31.3
		c11.7,0,17.4,17.1,17.6,36.8C450.3,613.6,446.4,626.8,434.7,626.8z"/>
	<path class="st0" d="M545,551c-8.6,0-14.5,6.7-20.1,10.2c-1.7-0.4-2-1-2-2.5c0-1.8,0.4-4.7,0.8-8.8c-0.4-0.6-1-1.1-1.6-1.4
		c-0.7-0.3-1.4-0.5-2.1-0.4c-6.3,4.1-20.5,9.6-29.9,12.2c-1.4,1.2-1.4,4.9,0,6.1l2.9,1.8c3.9,2.5,3.9,4.9,3.9,13l0.1,30.7
		c0,14.2-0.8,16.1-7.6,16.7l-3.9,0.4c-1.7,1.2-1.7,5.9,0.2,7.1c6.8-0.4,15.8-0.6,24.2-0.6c9.6,0,17.8,0.2,27.6,0.6
		c1.8-1.2,1.8-5.9,0.2-7.1l-6.6-0.6c-6.8-0.6-7.6-2.3-7.6-16.5v-31.3c0-7.7,1-12.2,3.9-12.2c1.2,0,3.1,0.2,7.8,4.1
		c2.6,2.5,5.1,3.7,8,3.7c6.6,0,13.1-3.9,13.1-13.3C556.3,555.2,550.6,551,545,551z"/>
	<path class="st0" d="M622.7,619.1c-2.5,1.7-5.7,3.1-8.6,3.1c-14.4,0-14.4-12.6-14.4-24.1v-30.6c0-4.5,0.2-4.7,2.9-4.7h18.5
		c2-1.2,2.6-4.9,2.6-7.1c0-1.8-0.6-3.1-1.7-3.9h-18.2c-3.7,0-3.9-0.2-3.9-4.1v-15.3c-1-1.6-4.7-1.8-6.1-1
		c-6.4,9-11.5,13.3-15.2,15.9c-4.9,3.3-10.7,6.9-17,9.1c-1.7,1.4-1,5.5,1.2,6.3h6.4c3.7,0,3.9,0.4,3.9,4.7v45.4
		c0,13.4,6,23.2,23,23.2c12.7,0,23.8-5.7,29.5-11.8C626,622,624.8,619.7,622.7,619.1z"/>
	<path class="st0" d="M708.3,611.1c-0.2-0.6-0.7-1.2-1.2-1.6c-0.5-0.4-1.1-0.8-1.8-1s-1.4-0.2-2-0.1c-5.5,9.4-13.3,10.6-19,10.6
		c-19,0-28.8-14.9-28.8-30.1c0-3.3,0.4-3.7,5.1-3.7h39.3c6.3,0,7.4-2.8,7.4-6.7c0-15.7-11.5-29.3-32.8-29.3
		c-25.6,0-44.3,19.9-44.3,45.6c0,22.2,15,41.6,42.6,41.6c12.3,0,27.4-5.9,35.8-23.2C708.7,612.4,708.6,611.7,708.3,611.1z
		 M673,558.4c6.9,0,10.9,4.5,10.9,11.2c0,2-0.4,4.1-1.4,4.7c-2.3,1.4-5.5,1.8-8.4,1.8h-7.5c-6.6,0-9.4-0.2-9.4-3.1
		C657,566.6,664.4,558.4,673,558.4z"/>
	<path class="st0" d="M805.5,629.1l-2.3-0.2c-7-0.6-11-2.6-18.2-13.3L771.1,595c-1.8-2.6-4.3-6.8-4.3-7.9c0-1,1.4-2.8,3.9-6.1
		c4.7-5.9,12.5-14.4,15.3-16.3c3.3-2,6.4-2.8,12.3-3.7l2.9-0.4c1.8-1.2,1.7-6.5-0.4-7.1c-5.1,0.4-10.4,0.6-15.6,0.6
		c-7.4,0-12.7-0.2-18.7-0.6c-2,0.8-2.5,5.9-0.6,7.1l2.3,0.6c2,0.6,3.3,1,3.3,1.8c0,1-0.2,1.8-1.4,3.7c-3.3,4.9-6.8,9.8-8.8,12.6
		c-2.9-4.1-5.7-7.9-8.4-12.4c-1.4-2.5-1.8-3.4-1.8-4.3c0-0.6,1.4-1.2,3.1-1.4l2.5-0.6c2.3-1.2,2-6.3-0.4-7.1
		c-7.4,0.4-14.5,0.6-21.9,0.6c-11.3,0-16.8-0.2-24.8-0.6c-2,0.6-2,6.1-0.6,7.1l4.3,1c4.5,1,8.4,2.6,12.5,9l11,16.9
		c4.7,7.4,6.6,10,6.6,10.8c0,1-0.6,2.5-1.8,4.5c-2.9,4.3-13.7,18.4-16.8,21.4c-1.8,2-6.1,3.4-9.6,4.1l-5.1,0.8
		c-2,1.7-1.4,6.1,0.4,7.1c6.3-0.4,11.2-0.6,16-0.6c6.3,0,12.5,0.2,18.4,0.6c1.7-0.8,2-5.9,0.4-7.1l-3.3-0.6c-2.9-0.6-3.7-1-3.7-2
		c0-1.2,0.8-3.1,2.5-5.9c2.6-4.5,5.5-9.1,8.4-13.4c3.3,4.7,6,9,8.8,13.4c1.7,2.6,2.5,4.7,2.5,5.5c0,0.9-0.6,1.7-3.5,2.3l-4.5,0.8
		c-1.7,1.4-1.2,6.3,0.6,7.1c9.5-0.4,19-0.6,27.3-0.6c7.8,0,15.8,0.2,24.8,0.6C807.2,635.4,807.2,630.5,805.5,629.1z"/>
	<path class="st0" d="M365.1,613.3c-1.4,2-2.9,3.9-4.7,5.5c-6.6,6.2-15.2,9.3-25.6,9.3c-11.8,0-21.1-4.4-27.8-13.3
		c-8-10.5-12.1-23.5-12.1-39c0-15.7,3.7-28.2,11.2-37.7s17.4-14.3,29.6-14.3c10.1,0,18.2,3.1,24.3,9.1c1.5,1.4,2.8,2.9,3.9,4.7
		c1.3,2.2,2.5,4.5,3.4,6.9l7.4-1.1c-2-6.9-3.1-10.7-3.4-11.4c-0.2-0.7-1-4.1-2.3-9.9c-8.8-2.6-15.5-4.2-20-5
		c-5.6-0.8-11.2-1.2-16.8-1.1c-8.6,0-16.1,1-22.6,3.1c-6.6,2.1-12.7,5.3-18.1,9.5c-6.4,4.9-11.7,11-15.6,18
		c-5.8,10.5-8.7,21.3-8.7,32.5c-0.1,8.9,1.8,17.7,5.5,25.8c3.5,7.6,8.8,14.3,15.5,19.5c10.6,8,24.8,12,42.7,12
		c5.4,0,10.7-0.2,16.1-0.8c6.1-0.7,12.2-1.6,18.2-2.9l5-1c0.9-4.4,1.8-8.5,2.8-12.3c1-3.9,2.2-7.9,3.6-12.2l-7.2-1.5
		C368,608.3,366.6,610.8,365.1,613.3z"/>
	<path class="st0" d="M256.1,515.9c-3.3,0.1-9.8,0.3-19.6,0.8c-2.2,0.1-5.1,0.2-8.7,0.2c-5.4-0.2-10.1-0.4-14.1-0.7
		c-3.7-0.2-8.4-0.3-14.1-0.3c-0.7,0-1.2,0.6-1.2,1.2v4.4c0,0.7,0.6,1.2,1.2,1.2h3.3c7.5,0,11.3,2.8,11.3,8.5v89.7
		c0,5.6-3.7,8.3-11.1,8.3h-3.4c-0.7,0-1.2,0.6-1.2,1.2v4.4c0,0.7,0.6,1.2,1.2,1.2c3.3-0.1,9.8-0.4,19.6-0.9c2.2-0.1,5.2-0.2,8.7-0.2
		c1.5,0,5.6,0.2,12.2,0.5c6,0.3,11.4,0.5,16,0.5c0.7,0,1.2-0.6,1.2-1.2v-4.4c0-0.7-0.6-1.2-1.2-1.2h-3.3c-3.9,0-6.8-0.7-8.5-1.9
		c-1.7-1.2-2.6-3.4-2.6-6.4v-89.5c0-3,0.9-5.2,2.6-6.5c1.8-1.4,4.6-2,8.5-2h3.3c0.7,0,1.2-0.6,1.2-1.2v-4.4
		C257.3,516.5,256.8,515.9,256.1,515.9z"/>
</g>
<g>
	
		<linearGradient id="SVGID_1_" gradientUnits="userSpaceOnUse" x1="255.289" y1="-3.6638" x2="625.3138" y2="-296.6936" gradientTransform="matrix(1 0 0 -1 0 229.3921)">
		<stop  offset="0" style="stop-color:#FF805F"/>
		<stop  offset="0.5" style="stop-color:#B74BDD"/>
		<stop  offset="1" style="stop-color:#0379FF"/>
	</linearGradient>
	<polygon class="st1" points="328.1,170.6 378.6,170.6 378.6,157.6 315.1,157.6 315.1,453.6 378.6,453.6 378.6,440.6 328.1,440.6 	
		"/>
	
		<linearGradient id="SVGID_00000047061169208582258380000003790227175780143032_" gradientUnits="userSpaceOnUse" x1="375.4596" y1="147.8534" x2="745.4845" y2="-145.1762" gradientTransform="matrix(1 0 0 -1 0 229.3921)">
		<stop  offset="0" style="stop-color:#FF805F"/>
		<stop  offset="0.5" style="stop-color:#B74BDD"/>
		<stop  offset="1" style="stop-color:#0379FF"/>
	</linearGradient>
	<polygon style="fill:url(#SVGID_00000047061169208582258380000003790227175780143032_);" points="626.6,157.6 626.6,170.6 
		677.1,170.6 677.1,440.6 626.6,440.6 626.6,453.6 690.1,453.6 690.1,157.6 	"/>
	
		<linearGradient id="SVGID_00000003789862771735846080000009491816693216573830_" gradientUnits="userSpaceOnUse" x1="331.0525" y1="91.778" x2="701.0773" y2="-201.2517" gradientTransform="matrix(1 0 0 -1 0 229.3921)">
		<stop  offset="0" style="stop-color:#FF805F"/>
		<stop  offset="0.5" style="stop-color:#B74BDD"/>
		<stop  offset="1" style="stop-color:#0379FF"/>
	</linearGradient>
	<path style="fill:url(#SVGID_00000003789862771735846080000009491816693216573830_);" d="M645.6,305.6c0-18.8-13.6-34.2-30.8-35.7
		c3.4-5.8,5.2-12.4,5.2-19.1c0-19.8-15-35.8-33.6-35.8c-3.4,0-6.8,0.6-10,1.7c-0.1-19.6-15.1-35.5-33.6-35.5s-33.6,16-33.6,35.8
		v39.9l0,0l26.6,25.4v46.8l0,0l0,0l0,0l-26.6,25.4l0,0v39.9c0,19.8,15,35.8,33.6,35.8c18.4,0,33.4-15.8,33.6-35.4
		c3.2,1.1,6.6,1.6,10,1.6c18.5,0,33.6-16,33.6-35.8c0-6.7-1.8-13.4-5.2-19.2C632,339.8,645.6,324.4,645.6,305.6z M572.2,235.3
		L572.2,235.3c-0.4,0.4-0.7,0.8-1.1,1.2L572.2,235.3z M522.5,216.9c0-12,9.1-21.7,20.4-21.7c11.2,0,20.4,9.7,20.4,21.7l0,0
		c0,4-1,7.9-3,11.4l-5.8,6.5l-7,7.9h-24.8v-25.8L522.5,216.9L522.5,216.9z M529.1,256.8H553l0.3-0.3l0.1-0.1l9.8-11l7.5-8.4l0.5-0.6
		c0.3-0.4,0.7-0.8,1.1-1.2c1.8-1.9,4-3.5,6.5-4.6c2.4-1.1,5.1-1.6,7.7-1.6c11.2,0,20.4,9.7,20.4,21.7c0,8.2-4.2,15.3-10.5,19h-53.6
		L529.1,256.8z M542.8,416c-11.2,0-20.4-9.7-20.4-21.7v-25.8h24.9l7.1,7.9l5.8,6.5c2,3.5,3,7.4,3,11.4
		C563.2,406.3,554.1,416,542.8,416z M586.4,382.2c-5.1,0-10-2-13.6-5.6c-0.8-0.7-1.5-1.5-2.1-2.4l0,0l0,0v-0.1l0,0l-7.5-8.4l-9.8-11
		l-0.1-0.1l-0.3-0.3h-24l13.6-13h53.6c6.3,3.7,10.6,10.8,10.6,19C606.8,372.5,597.6,382.2,586.4,382.2z M549.1,327.3v-43.4h63
		c11.2,0,20.4,9.7,20.4,21.7s-9.1,21.7-20.4,21.7H549.1L549.1,327.3z"/>
	
		<linearGradient id="SVGID_00000109015560510369787510000000949459520402407608_" gradientUnits="userSpaceOnUse" x1="322.7392" y1="81.2804" x2="692.764" y2="-211.7493" gradientTransform="matrix(1 0 0 -1 0 229.3921)">
		<stop  offset="0" style="stop-color:#FF805F"/>
		<stop  offset="0.5" style="stop-color:#B74BDD"/>
		<stop  offset="1" style="stop-color:#0379FF"/>
	</linearGradient>
	<path style="fill:url(#SVGID_00000109015560510369787510000000949459520402407608_);" d="M434.1,236.5L434.1,236.5l-1.1-1.2
		C433.4,235.7,433.7,236.1,434.1,236.5z"/>
	
		<linearGradient id="SVGID_00000173860693022773525120000009461180980192941246_" gradientUnits="userSpaceOnUse" x1="308.2917" y1="63.0364" x2="526.7546" y2="-109.9684" gradientTransform="matrix(1 0 0 -1 0 229.3921)">
		<stop  offset="0" style="stop-color:#FF805F"/>
		<stop  offset="0.5" style="stop-color:#B74BDD"/>
		<stop  offset="1" style="stop-color:#0379FF"/>
	</linearGradient>
	<path style="fill:url(#SVGID_00000173860693022773525120000009461180980192941246_);" d="M570.6,374.1L570.6,374.1L570.6,374.1
		L570.6,374.1C570.5,374.1,570.6,374.1,570.6,374.1z"/>
	
		<linearGradient id="SVGID_00000168082825452421678410000008059479461531932808_" gradientUnits="userSpaceOnUse" x1="299.7438" y1="52.2428" x2="669.7686" y2="-240.787" gradientTransform="matrix(1 0 0 -1 0 229.3921)">
		<stop  offset="0" style="stop-color:#FF805F"/>
		<stop  offset="0.5" style="stop-color:#B74BDD"/>
		<stop  offset="1" style="stop-color:#0379FF"/>
	</linearGradient>
	<path style="fill:url(#SVGID_00000168082825452421678410000008059479461531932808_);" d="M462.4,181.1c-18.4,0-33.4,15.9-33.6,35.5
		c-3.2-1.1-6.6-1.6-10-1.6c-18.5,0-33.6,16-33.6,35.8c0,6.7,1.8,13.3,5.2,19.1c-17.2,1.5-30.8,16.9-30.8,35.7
		c0,18.8,13.6,34.2,30.8,35.7c-3.4,5.8-5.2,12.4-5.2,19.2c0,19.8,15,35.8,33.6,35.8c3.4,0,6.8-0.5,10-1.6
		c0.2,19.6,15.1,35.5,33.6,35.5s33.6-16,33.6-35.8v-39.9l0,0L469.3,329v-46.8l0,0l26.6-25.4l0,0v-39.9
		C495.9,197.1,480.9,181.1,462.4,181.1z M393.2,327.3c-11.2,0-20.4-9.7-20.4-21.7s9.1-21.7,20.4-21.7h63v43.4H393.2L393.2,327.3z
		 M434.6,374.1L434.6,374.1L434.6,374.1L434.6,374.1z M482.7,394.3c0,12-9.1,21.7-20.4,21.7c-11.2,0-20.4-9.7-20.4-21.7
		c0-4,1-7.9,3-11.4l5.8-6.5l7.1-7.9h24.8L482.7,394.3L482.7,394.3L482.7,394.3z M476.2,354.4h-24l-0.3,0.3v0.1l-9.8,11l-7.5,8.4v0.1
		l-0.1,0.1l0.1-0.1c-0.6,0.9-1.4,1.7-2.1,2.4l0.1-0.1l-0.1,0.1c-3.6,3.6-8.5,5.6-13.6,5.6c-11.2,0-20.4-9.7-20.4-21.7
		c0-8.2,4.3-15.4,10.6-19h53.6L476.2,354.4z M462.5,269.8h-53.6c-6.2-3.7-10.5-10.8-10.5-19c0-12,9.1-21.7,20.4-21.7
		c2.7,0,5.3,0.6,7.7,1.6c2.4,1.1,4.6,2.6,6.5,4.6c0.4,0.4,0.7,0.8,1.1,1.2l0.5,0.6l7.5,8.4l9.8,11l0.1,0.1l0.3,0.3h23.9L462.5,269.8
		z M482.7,242.7h-24.8l-7-7.9l-5.8-6.5c-2-3.5-3-7.4-3-11.4c0-12,9.1-21.7,20.4-21.7l0,0c11.2,0,20.4,9.7,20.4,21.7v25.8H482.7z"/>
	
		<linearGradient id="SVGID_00000001635838421947352270000017092808666004001944_" gradientUnits="userSpaceOnUse" x1="308.1108" y1="62.8081" x2="678.1356" y2="-230.2216" gradientTransform="matrix(1 0 0 -1 0 229.3921)">
		<stop  offset="0" style="stop-color:#FF805F"/>
		<stop  offset="0.5" style="stop-color:#B74BDD"/>
		<stop  offset="1" style="stop-color:#0379FF"/>
	</linearGradient>
	<path style="fill:url(#SVGID_00000001635838421947352270000017092808666004001944_);" d="M572.8,376.6l-2.1-2.4
		C571.3,375,572,375.8,572.8,376.6z"/>
	
		<linearGradient id="SVGID_00000175313046023145634650000001504634617669914036_" gradientUnits="userSpaceOnUse" x1="254.831" y1="-4.471" x2="624.8558" y2="-297.5008" gradientTransform="matrix(1 0 0 -1 0 229.3921)">
		<stop  offset="0" style="stop-color:#FF805F"/>
		<stop  offset="0.5" style="stop-color:#B74BDD"/>
		<stop  offset="1" style="stop-color:#0379FF"/>
	</linearGradient>
	<path style="fill:url(#SVGID_00000175313046023145634650000001504634617669914036_);" d="M434.4,374.3l-1.9,2.1
		C433.2,375.8,433.9,375.1,434.4,374.3z"/>
</g>
</svg>
