<svg width="375" height="296" viewBox="0 0 375 296" fill="none" xmlns="http://www.w3.org/2000/svg">
<g clip-path="url(#clip0_3257_70264)">
<mask id="mask0_3257_70264" style="mask-type:alpha" maskUnits="userSpaceOnUse" x="0" y="0" width="375" height="296">
<path fill-rule="evenodd" clip-rule="evenodd" d="M0 0H63.5V13H13V283H63.5V296H0V0Z" fill="white"/>
<path fill-rule="evenodd" clip-rule="evenodd" d="M375 0H311.5V13H362V283H311.5V296H375V0Z" fill="white"/>
<mask id="mask1_3257_70264" style="mask-type:alpha" maskUnits="userSpaceOnUse" x="44" y="23" width="287" height="250">
<path fill-rule="evenodd" clip-rule="evenodd" d="M255.445 216.47C255.456 216.486 255.466 216.502 255.474 216.52L255.524 216.572L255.445 216.47ZM220.757 171.344L194.16 196.756V196.774V236.669C194.16 256.45 209.186 272.482 227.73 272.482C246.153 272.482 261.112 256.647 261.293 237.032C264.523 238.106 267.904 238.652 271.307 238.651C289.844 238.651 304.873 222.622 304.873 202.841C304.895 196.099 303.097 189.477 299.668 183.677C316.926 182.193 330.497 166.779 330.497 147.972C330.497 129.166 316.946 113.786 299.706 112.267C303.111 106.481 304.896 99.8824 304.873 93.1653C304.873 73.3872 289.844 57.3552 271.307 57.3552C267.899 57.3671 264.516 57.9284 261.287 59.0175C261.141 39.377 246.168 23.5029 227.724 23.5029C209.18 23.5029 194.154 39.535 194.154 59.3131V99.1766L194.189 99.2118L220.751 124.591V171.359L220.757 171.344ZM248.087 59.2955C248.1 63.2905 247.059 67.218 245.069 70.6801L239.259 77.2006L232.21 85.1025H207.363V59.3102C207.363 47.311 216.477 37.5859 227.727 37.5859C238.976 37.5859 248.09 47.311 248.09 59.3102L248.087 59.2955ZM233.963 169.708V126.263H296.925C308.171 126.263 317.288 135.988 317.288 147.984C317.288 159.98 308.171 169.708 296.925 169.708H233.963ZM207.363 210.865H232.21L239.262 218.767L245.066 225.279C247.059 228.742 248.101 232.672 248.087 236.669C248.087 248.669 238.97 258.391 227.727 258.391C216.483 258.391 207.363 248.666 207.363 236.669V210.86V210.865ZM227.519 183.797H281.098C287.396 187.49 291.667 194.626 291.667 202.843C291.667 214.843 282.547 224.568 271.304 224.568C266.206 224.551 261.314 222.545 257.668 218.975V218.975C256.897 218.234 256.184 217.435 255.536 216.584L255.486 216.531L248.002 208.135L238.228 197.169L238.175 197.113L237.883 196.788H213.93L227.519 183.797ZM213.986 99.1942H237.875L238.167 98.8781L238.222 98.8137L247.993 87.8506L255.489 79.4424L256.02 78.8571C256.362 78.4445 256.719 78.0435 257.09 77.663C258.919 75.7222 261.122 74.1739 263.567 73.1119C266.011 72.0499 268.645 71.4964 271.31 71.485C282.553 71.485 291.673 81.2131 291.673 93.2093C291.673 101.372 287.452 108.48 281.215 112.191H227.575L213.986 99.1942ZM194.192 99.1942H194.157V99.1591L194.192 99.1942ZM194.192 99.1942H194.157V99.1591L194.192 99.1942ZM257.084 77.6484L256.015 78.8425C256.359 78.4415 256.716 78.0406 257.087 77.6601L257.084 77.6484ZM257.668 218.966C256.897 218.225 256.184 217.426 255.536 216.575L257.668 218.966ZM220.766 124.577V126.263V124.574V124.577ZM220.766 169.708V171.344V169.705V169.708ZM119.479 216.572L119.526 216.52C119.535 216.502 119.546 216.486 119.558 216.47L119.479 216.572ZM154.24 124.577L180.802 99.1971L180.84 99.162V59.3102C180.84 39.5321 165.811 23.5 147.27 23.5C128.824 23.5 113.85 39.374 113.704 59.0146C110.475 57.9412 107.095 57.3948 103.693 57.3962C85.1531 57.3962 70.124 73.4282 70.124 93.2064C70.1019 99.9232 71.887 106.522 75.2914 112.308C58.0568 113.813 44.5 129.218 44.5 148.013C44.5 166.808 58.0714 182.225 75.3323 183.718C71.901 189.518 70.1012 196.14 70.124 202.882C70.124 222.663 85.1531 238.692 103.693 238.692C107.095 238.693 110.475 238.147 113.704 237.073C113.885 256.682 128.844 272.523 147.27 272.523C165.811 272.523 180.84 256.491 180.84 236.71V196.815V196.797L154.24 171.385V124.618V124.577ZM147.273 37.5712C158.52 37.5712 167.636 47.2993 167.636 59.2955V85.1054H142.787L135.741 77.2035L129.931 70.6831C127.943 67.2246 126.903 63.3011 126.916 59.3102C126.916 47.311 136.027 37.5829 147.27 37.5829L147.273 37.5712ZM78.0694 169.708C66.826 169.708 57.7063 159.983 57.7063 147.984C57.7063 135.985 66.826 126.263 78.0694 126.263H141.037V169.708H78.0694ZM167.636 236.675C167.636 248.674 158.52 258.397 147.273 258.397C136.027 258.397 126.91 248.671 126.91 236.675C126.896 232.678 127.938 228.748 129.931 225.285L135.735 218.773L142.787 210.871H167.636V236.675ZM161.067 196.777H137.114L136.822 197.101L136.772 197.157L126.998 208.123L119.511 216.52L119.464 216.572C118.816 217.423 118.103 218.222 117.332 218.963V218.963C113.687 222.533 108.796 224.539 103.699 224.556C92.4529 224.556 83.3361 214.831 83.3361 202.832C83.3361 194.623 87.6039 187.479 93.9018 183.785H147.484L161.067 196.777ZM147.428 112.174H93.7879C87.5513 108.463 83.3332 101.345 83.3332 93.1917C83.3332 81.1926 92.45 71.4674 103.696 71.4674C106.361 71.4788 108.995 72.0323 111.439 73.0943C113.883 74.1563 116.087 75.7046 117.916 77.6455C118.284 78.0259 118.641 78.4269 118.982 78.8395L119.511 79.4249L127.007 87.833L136.778 98.7962L136.836 98.8605L137.128 99.1766H161.02L147.428 112.174ZM180.843 99.1591V99.1942H180.805L180.843 99.1591ZM180.843 99.1591V99.1942H180.805L180.843 99.1591ZM118.982 78.8425L117.916 77.6484C118.281 78.0406 118.638 78.4415 118.98 78.8542L118.982 78.8425ZM119.47 216.575C118.822 217.426 118.109 218.225 117.338 218.966L119.47 216.575ZM154.231 124.574V126.263V124.577V124.574ZM154.231 169.708V171.347V169.711V169.708Z" fill="white"/>
</mask>
<g mask="url(#mask1_3257_70264)">
<path d="M335.5 0.5H33.5V295.5H335.5V0.5Z" fill="url(#paint0_linear_3257_70264)"/>
</g>
</mask>
<g mask="url(#mask0_3257_70264)">
<path d="M375.5 -0.5H-0.5V296.5H375.5V-0.5Z" fill="url(#paint1_linear_3257_70264)" stroke="white" stroke-miterlimit="10"/>
</g>
</g>
<defs>
<linearGradient id="paint0_linear_3257_70264" x1="33.5001" y1="0.500072" x2="328.419" y2="302.417" gradientUnits="userSpaceOnUse">
<stop stop-color="#FF805F"/>
<stop offset="0.5" stop-color="#B74BDD"/>
<stop offset="1" stop-color="#0379FF"/>
</linearGradient>
<linearGradient id="paint1_linear_3257_70264" x1="-0.499908" y1="-0.499927" x2="288.427" y2="365.279" gradientUnits="userSpaceOnUse">
<stop stop-color="#FF805F"/>
<stop offset="0.5" stop-color="#B74BDD"/>
<stop offset="1" stop-color="#0379FF"/>
</linearGradient>
<clipPath id="clip0_3257_70264">
<rect width="375" height="296" fill="white"/>
</clipPath>
</defs>
</svg>
